<svg xmlns="http://www.w3.org/2000/svg" xmlns:xlink="http://www.w3.org/1999/xlink" width="40" zoomAndPan="magnify" viewBox="0 0 30 30.000001" height="40" preserveAspectRatio="xMidYMid meet" version="1.0"><defs><clipPath id="b326078fc7"><path d="M 6 0.808594 L 24 0.808594 L 24 28.386719 L 6 28.386719 Z M 6 0.808594 " clip-rule="nonzero"/></clipPath></defs><g clip-path="url(#b326078fc7)"><path fill="#3f0f87" d="M 9.152344 28.015625 C 8.972656 27.953125 8.730469 27.847656 8.617188 27.785156 C 8.503906 27.722656 8.371094 27.667969 8.316406 27.667969 C 8.265625 27.667969 8.066406 27.5625 7.875 27.433594 C 7.683594 27.304688 7.453125 27.199219 7.363281 27.199219 C 7.179688 27.199219 6.523438 26.488281 6.523438 26.289062 C 6.523438 26.117188 6.53125 26.121094 8.777344 26.628906 C 9.265625 26.742188 9.964844 26.894531 10.324219 26.972656 C 11.3125 27.179688 11.78125 27.3125 11.828125 27.386719 C 11.851562 27.425781 11.613281 27.59375 11.296875 27.765625 C 10.644531 28.113281 9.734375 28.21875 9.152344 28.015625 Z M 10.277344 26.730469 C 8.835938 26.433594 6.765625 25.898438 7.019531 25.890625 C 7.179688 25.882812 10.332031 26.570312 11.5 26.867188 C 12.386719 27.089844 11.609375 27.003906 10.277344 26.730469 Z M 11.5 26.589844 C 11.054688 26.484375 11.03125 26.46875 11.3125 26.464844 C 11.492188 26.464844 11.808594 26.519531 12.015625 26.585938 C 12.496094 26.742188 12.175781 26.746094 11.5 26.589844 Z M 9.808594 26.257812 C 9.421875 26.164062 8.617188 25.976562 8.023438 25.839844 C 7.429688 25.699219 6.90625 25.550781 6.859375 25.507812 C 6.761719 25.410156 6.820312 25.421875 8.117188 25.730469 C 8.660156 25.859375 9.515625 26.054688 10.019531 26.167969 C 10.523438 26.277344 10.9375 26.386719 10.9375 26.40625 C 10.9375 26.480469 10.519531 26.425781 9.808594 26.257812 Z M 12.085938 26.335938 C 11.816406 26.285156 11.59375 26.214844 11.59375 26.175781 C 11.59375 26.136719 11.878906 26.164062 12.226562 26.234375 C 13.226562 26.441406 13.113281 26.523438 12.085938 26.335938 Z M 12.320312 26.007812 C 11.550781 25.859375 11.316406 25.683594 11.992188 25.761719 C 12.449219 25.8125 13.378906 26.054688 13.378906 26.121094 C 13.378906 26.1875 13.121094 26.160156 12.320312 26.007812 Z M 9.714844 25.835938 C 9.226562 25.71875 8.804688 25.613281 8.785156 25.609375 C 8.761719 25.605469 8.769531 25.578125 8.796875 25.550781 C 8.855469 25.492188 10.535156 25.867188 10.75 25.988281 C 10.984375 26.121094 10.703125 26.078125 9.714844 25.835938 Z M 12.675781 25.738281 C 12.363281 25.671875 11.949219 25.589844 11.753906 25.554688 C 11.410156 25.5 11.089844 25.136719 11.246094 24.980469 C 11.277344 24.949219 11.84375 25.035156 12.507812 25.175781 C 13.167969 25.316406 13.765625 25.433594 13.839844 25.4375 C 13.917969 25.441406 13.863281 25.535156 13.699219 25.664062 C 13.390625 25.910156 13.441406 25.90625 12.675781 25.738281 Z M 9.917969 25.542969 C 9.1875 25.382812 8.878906 25.234375 9.277344 25.230469 C 9.589844 25.226562 10.566406 25.492188 10.695312 25.613281 C 10.8125 25.71875 10.671875 25.707031 9.917969 25.542969 Z M 7.085938 25.226562 C 6.75 25.132812 6.539062 25.054688 6.617188 25.046875 C 6.804688 25.035156 8.03125 25.292969 8.097656 25.359375 C 8.199219 25.460938 7.691406 25.394531 7.085938 25.226562 Z M 10.089844 25.257812 C 9.757812 25.203125 9.339844 25.027344 9.339844 24.945312 C 9.339844 24.605469 10.378906 24.605469 10.5625 24.945312 C 10.753906 25.308594 10.6875 25.355469 10.089844 25.257812 Z M 7.695312 24.996094 C 7.320312 24.871094 7.320312 24.871094 7.617188 24.859375 C 7.960938 24.847656 8.210938 24.929688 8.210938 25.050781 C 8.210938 25.152344 8.164062 25.148438 7.695312 24.996094 Z M 6.523438 24.703125 C 6.097656 24.570312 6.097656 24.570312 6.511719 24.621094 C 6.917969 24.667969 7.402344 24.851562 7.085938 24.839844 C 7.007812 24.835938 6.753906 24.773438 6.523438 24.703125 Z M 8.023438 24.742188 C 7.894531 24.691406 7.410156 24.574219 6.945312 24.488281 C 6.105469 24.332031 5.941406 24.222656 6.125 23.9375 C 6.183594 23.851562 6.3125 23.855469 6.710938 23.957031 C 6.996094 24.03125 7.347656 24.113281 7.496094 24.136719 C 7.902344 24.210938 8.820312 24.410156 8.851562 24.433594 C 8.871094 24.445312 8.828125 24.546875 8.761719 24.652344 C 8.628906 24.867188 8.394531 24.894531 8.023438 24.742188 Z M 13.160156 24.664062 C 12.300781 24.464844 12.242188 24.425781 12.515625 24.230469 C 12.628906 24.152344 12.808594 23.921875 12.914062 23.71875 C 13.136719 23.277344 13.058594 23.289062 13.992188 23.59375 C 15.066406 23.941406 15.039062 23.910156 14.671875 24.390625 C 14.300781 24.878906 14.183594 24.898438 13.160156 24.664062 Z M 10.714844 23.910156 C 9.613281 23.578125 9.492188 21.9375 10.535156 21.5 C 11.730469 21.003906 12.910156 22.332031 12.238281 23.417969 C 11.925781 23.917969 11.359375 24.101562 10.714844 23.910156 Z M 11.625 23.449219 C 11.773438 23.390625 11.898438 23.234375 11.96875 23.019531 C 12.179688 22.378906 11.757812 21.84375 11.042969 21.84375 C 10.578125 21.84375 10.289062 22.078125 10.222656 22.503906 C 10.109375 23.195312 10.898438 23.722656 11.625 23.449219 Z M 10.875 22.832031 C 10.800781 22.636719 10.902344 22.410156 11.0625 22.410156 C 11.25 22.410156 11.4375 22.660156 11.371094 22.832031 C 11.300781 23.011719 10.945312 23.015625 10.875 22.832031 Z M 9.167969 23.738281 C 9.019531 23.640625 8.910156 22.363281 9.027344 22.0625 C 9.082031 21.917969 9.105469 22.066406 9.105469 22.535156 C 9.105469 23.023438 9.152344 23.285156 9.269531 23.464844 C 9.5 23.820312 9.464844 23.921875 9.167969 23.738281 Z M 7.273438 23.378906 C 6.683594 23.25 6.167969 23.097656 6.128906 23.039062 C 6.058594 22.925781 6.5 22.03125 6.628906 22.03125 C 6.667969 22.03125 6.917969 22.117188 7.179688 22.21875 C 7.78125 22.457031 7.929688 22.457031 7.929688 22.214844 C 7.929688 22.089844 7.886719 22.042969 7.8125 22.082031 C 7.75 22.113281 7.839844 22.011719 8.015625 21.855469 C 8.191406 21.699219 8.378906 21.597656 8.429688 21.628906 C 8.484375 21.660156 8.492188 21.636719 8.453125 21.574219 C 8.398438 21.484375 8.351562 21.488281 8.238281 21.582031 C 8.109375 21.6875 8.101562 21.675781 8.160156 21.492188 C 8.261719 21.171875 8.058594 21.238281 7.945312 21.5625 C 7.890625 21.71875 7.78125 21.84375 7.695312 21.84375 C 7.574219 21.84375 7.582031 21.808594 7.738281 21.640625 C 7.84375 21.527344 7.925781 21.367188 7.921875 21.285156 C 7.917969 21.183594 7.902344 21.175781 7.867188 21.261719 C 7.828125 21.355469 7.785156 21.34375 7.679688 21.214844 C 7.554688 21.058594 7.554688 21.0625 7.648438 21.261719 C 7.78125 21.539062 7.683594 21.6875 7.398438 21.632812 C 7.179688 21.589844 7.175781 21.59375 7.339844 21.773438 C 7.507812 21.957031 7.503906 21.957031 7.15625 21.789062 C 6.742188 21.59375 6.742188 21.589844 7.015625 21.1875 C 7.363281 20.671875 7.449219 20.664062 8.054688 21.054688 C 8.542969 21.371094 8.597656 21.4375 8.542969 21.652344 C 8.511719 21.785156 8.457031 22.019531 8.429688 22.171875 C 8.367188 22.496094 8.207031 22.636719 8.089844 22.472656 C 8.035156 22.398438 8.023438 22.414062 8.058594 22.519531 C 8.085938 22.605469 8.058594 22.699219 7.996094 22.722656 C 7.933594 22.75 7.957031 22.773438 8.046875 22.777344 C 8.136719 22.78125 8.210938 22.742188 8.210938 22.691406 C 8.210938 22.640625 8.246094 22.597656 8.285156 22.597656 C 8.328125 22.597656 8.402344 22.828125 8.453125 23.113281 C 8.519531 23.46875 8.519531 23.625 8.453125 23.617188 C 8.398438 23.613281 7.867188 23.503906 7.273438 23.378906 Z M 7.859375 22.707031 C 7.886719 22.609375 7.855469 22.535156 7.789062 22.535156 C 7.722656 22.535156 7.695312 22.609375 7.71875 22.707031 C 7.746094 22.800781 7.777344 22.878906 7.789062 22.878906 C 7.804688 22.878906 7.835938 22.800781 7.859375 22.707031 Z M 8.332031 22.035156 C 8.359375 21.929688 8.34375 21.84375 8.296875 21.84375 C 8.25 21.84375 8.210938 21.898438 8.210938 21.960938 C 8.210938 22.039062 8.179688 22.03125 8.117188 21.9375 C 8.039062 21.820312 8.027344 21.820312 8.027344 21.960938 C 8.023438 22.054688 8.070312 22.125 8.125 22.125 C 8.179688 22.125 8.195312 22.175781 8.15625 22.234375 C 8.117188 22.296875 8.128906 22.316406 8.1875 22.285156 C 8.238281 22.25 8.304688 22.136719 8.332031 22.035156 Z M 14.976562 23.25 C 14.976562 23.195312 14.929688 23.175781 14.875 23.210938 C 14.820312 23.246094 14.753906 23.183594 14.722656 23.074219 C 14.695312 22.96875 14.632812 22.878906 14.582031 22.878906 C 14.535156 22.878906 14.519531 22.921875 14.554688 22.972656 C 14.585938 23.023438 14.542969 23.066406 14.460938 23.066406 C 14.378906 23.066406 14.273438 22.972656 14.226562 22.855469 C 14.164062 22.699219 14.140625 22.683594 14.136719 22.804688 C 14.132812 22.90625 14.078125 22.945312 13.996094 22.914062 C 13.921875 22.886719 13.882812 22.804688 13.910156 22.730469 C 13.96875 22.578125 13.816406 22.554688 13.578125 22.683594 C 13.367188 22.796875 13.234375 22.703125 13.15625 22.382812 C 13.097656 22.148438 13.261719 21.800781 13.714844 21.203125 C 13.75 21.160156 14.253906 21.429688 14.726562 21.75 C 14.957031 21.90625 15.1875 22.03125 15.242188 22.03125 C 15.421875 22.03125 15.914062 22.359375 15.914062 22.480469 C 15.914062 22.546875 15.851562 22.625 15.773438 22.65625 C 15.5625 22.738281 15.070312 22.503906 15.070312 22.328125 C 15.066406 22.210938 15.046875 22.203125 14.992188 22.292969 C 14.882812 22.460938 14.332031 22.230469 14.394531 22.042969 C 14.421875 21.953125 14.398438 21.9375 14.308594 21.992188 C 14.238281 22.035156 14.042969 22.058594 13.875 22.042969 C 13.25 21.992188 13.597656 22.238281 15.136719 22.949219 C 15.433594 23.085938 15.503906 23.160156 15.421875 23.238281 C 15.285156 23.375 14.976562 23.382812 14.976562 23.25 Z M 15.539062 22.410156 C 15.539062 22.355469 15.476562 22.316406 15.398438 22.316406 C 15.320312 22.316406 15.257812 22.355469 15.257812 22.410156 C 15.257812 22.460938 15.320312 22.503906 15.398438 22.503906 C 15.476562 22.503906 15.539062 22.460938 15.539062 22.410156 Z M 12.449219 20.769531 C 12.289062 20.414062 12.171875 20.109375 12.191406 20.089844 C 12.242188 20.039062 13.128906 20.65625 13.160156 20.765625 C 13.175781 20.816406 13.089844 20.984375 12.964844 21.136719 C 12.742188 21.417969 12.742188 21.417969 12.449219 20.769531 Z M 9.808594 21 C 10.433594 20.585938 11.5625 20.382812 11.65625 20.671875 C 11.675781 20.726562 11.417969 20.765625 11 20.765625 C 10.402344 20.765625 10.261719 20.796875 9.9375 21.023438 C 9.734375 21.164062 9.523438 21.28125 9.476562 21.28125 C 9.425781 21.28125 9.578125 21.15625 9.808594 21 Z M 8.582031 20.640625 C 8.398438 20.503906 8.148438 20.320312 8.023438 20.238281 C 7.796875 20.085938 7.796875 20.085938 8.164062 19.601562 C 8.5625 19.082031 8.734375 19.03125 8.71875 19.4375 C 8.710938 19.621094 8.746094 19.679688 8.835938 19.644531 C 8.914062 19.617188 8.964844 19.660156 8.96875 19.757812 C 8.976562 19.890625 8.992188 19.886719 9.058594 19.730469 C 9.113281 19.605469 9.140625 19.589844 9.148438 19.683594 C 9.152344 19.808594 9.164062 19.808594 9.246094 19.683594 C 9.296875 19.605469 9.335938 19.585938 9.335938 19.636719 C 9.335938 19.816406 9.199219 19.917969 8.925781 19.941406 C 8.773438 19.953125 8.613281 20.015625 8.566406 20.082031 C 8.507812 20.160156 8.492188 20.113281 8.519531 19.941406 C 8.542969 19.796875 8.519531 19.652344 8.46875 19.621094 C 8.414062 19.589844 8.398438 19.605469 8.429688 19.65625 C 8.460938 19.707031 8.425781 19.832031 8.351562 19.929688 C 8.277344 20.027344 8.21875 20.171875 8.21875 20.246094 C 8.214844 20.375 8.226562 20.375 8.304688 20.246094 C 8.386719 20.125 8.398438 20.128906 8.398438 20.265625 C 8.402344 20.441406 8.566406 20.582031 8.664062 20.488281 C 8.695312 20.453125 8.660156 20.386719 8.585938 20.339844 C 8.472656 20.265625 8.476562 20.25 8.617188 20.25 C 8.710938 20.25 8.765625 20.210938 8.738281 20.167969 C 8.710938 20.125 8.746094 20.089844 8.8125 20.089844 C 8.914062 20.089844 8.914062 20.132812 8.8125 20.328125 C 8.679688 20.585938 8.699219 20.679688 8.867188 20.578125 C 8.921875 20.546875 8.9375 20.46875 8.902344 20.40625 C 8.867188 20.34375 8.929688 20.375 9.042969 20.472656 C 9.199219 20.609375 9.21875 20.683594 9.140625 20.777344 C 9.003906 20.945312 8.976562 20.9375 8.582031 20.640625 Z M 9.402344 20.261719 C 9.28125 20.128906 9.28125 20.089844 9.398438 19.984375 C 9.472656 19.917969 9.507812 19.824219 9.480469 19.777344 C 9.433594 19.703125 9.667969 19.753906 10.136719 19.917969 C 10.242188 19.957031 10.1875 19.898438 10.019531 19.789062 C 9.851562 19.679688 9.714844 19.554688 9.714844 19.503906 C 9.714844 19.457031 9.648438 19.347656 9.566406 19.269531 C 9.433594 19.132812 9.441406 19.121094 9.660156 19.121094 C 9.792969 19.121094 9.902344 19.078125 9.902344 19.03125 C 9.902344 18.980469 9.957031 18.953125 10.019531 18.96875 C 10.085938 18.984375 10.105469 18.976562 10.066406 18.957031 C 10.027344 18.933594 9.992188 18.824219 9.988281 18.714844 C 9.980469 18.53125 9.972656 18.53125 9.914062 18.746094 C 9.832031 19.035156 9.386719 19.082031 9.207031 18.820312 C 9.140625 18.726562 9.054688 18.683594 9.011719 18.722656 C 8.96875 18.761719 8.964844 18.738281 9.003906 18.671875 C 9.039062 18.609375 9.109375 18.578125 9.15625 18.609375 C 9.203125 18.636719 9.222656 18.605469 9.195312 18.535156 C 9.167969 18.464844 9.273438 18.289062 9.425781 18.140625 C 9.707031 17.875 9.707031 17.875 10.390625 18.503906 C 11.003906 19.070312 11.378906 19.605469 11.398438 19.941406 C 11.402344 20.023438 11.238281 20.0625 10.867188 20.0625 C 10.539062 20.0625 10.171875 20.136719 9.933594 20.242188 C 9.570312 20.40625 9.53125 20.410156 9.402344 20.261719 Z M 10.277344 19.589844 C 10.277344 19.539062 10.164062 19.5 10.019531 19.503906 C 9.761719 19.515625 9.761719 19.515625 9.996094 19.589844 C 10.125 19.632812 10.242188 19.667969 10.253906 19.675781 C 10.269531 19.679688 10.277344 19.640625 10.277344 19.589844 Z M 19.132812 17.1875 C 18.914062 16.953125 18.734375 16.785156 18.734375 16.816406 C 18.734375 16.84375 18.652344 16.792969 18.554688 16.703125 C 18.457031 16.613281 18.265625 16.4375 18.132812 16.316406 C 17.996094 16.195312 17.886719 16.054688 17.886719 16.003906 C 17.886719 15.90625 19.050781 16.894531 19.234375 17.148438 C 19.292969 17.234375 19.417969 17.328125 19.507812 17.363281 C 19.667969 17.421875 19.742188 17.621094 19.601562 17.613281 C 19.5625 17.609375 19.351562 17.417969 19.132812 17.1875 Z M 20.007812 16.65625 C 19.925781 16.542969 19.859375 16.480469 19.859375 16.523438 C 19.859375 16.5625 19.796875 16.535156 19.71875 16.457031 C 19.53125 16.269531 19.542969 16.214844 19.757812 16.273438 C 19.960938 16.328125 20.105469 16.160156 19.941406 16.058594 C 19.871094 16.015625 19.855469 16.03125 19.898438 16.101562 C 19.980469 16.230469 19.867188 16.238281 19.675781 16.117188 C 19.585938 16.0625 19.515625 16.066406 19.476562 16.128906 C 19.441406 16.183594 19.394531 16.164062 19.359375 16.070312 C 19.320312 15.976562 19.335938 15.941406 19.398438 15.976562 C 19.453125 16.011719 19.488281 15.984375 19.480469 15.914062 C 19.46875 15.84375 19.46875 15.703125 19.476562 15.597656 C 19.488281 15.425781 19.5 15.421875 19.585938 15.574219 C 19.71875 15.804688 20.066406 15.984375 19.988281 15.785156 C 19.957031 15.703125 19.910156 15.65625 19.886719 15.679688 C 19.863281 15.703125 19.722656 15.589844 19.574219 15.425781 C 19.425781 15.261719 19.300781 15.179688 19.300781 15.246094 C 19.296875 15.308594 19.339844 15.363281 19.386719 15.363281 C 19.4375 15.363281 19.453125 15.429688 19.425781 15.507812 C 19.375 15.632812 19.351562 15.628906 19.246094 15.484375 C 19.136719 15.335938 19.125 15.347656 19.144531 15.609375 C 19.164062 15.871094 19.148438 15.894531 18.996094 15.800781 C 18.902344 15.742188 18.828125 15.660156 18.828125 15.621094 C 18.828125 15.582031 18.769531 15.550781 18.699219 15.550781 C 18.625 15.550781 18.542969 15.460938 18.515625 15.355469 C 18.488281 15.246094 18.488281 15.179688 18.515625 15.207031 C 18.566406 15.257812 19.117188 14.484375 19.355469 14.023438 C 19.429688 13.882812 19.535156 13.765625 19.589844 13.765625 C 19.75 13.765625 21.449219 14.839844 21.453125 14.941406 C 21.460938 15.105469 20.988281 15.738281 20.855469 15.738281 C 20.789062 15.738281 20.621094 15.628906 20.488281 15.496094 C 20.355469 15.363281 20.1875 15.246094 20.113281 15.234375 C 20.042969 15.222656 19.867188 15.140625 19.726562 15.046875 C 19.472656 14.878906 19.472656 14.878906 19.585938 15.09375 C 19.648438 15.210938 19.910156 15.5 20.171875 15.738281 C 20.476562 16.023438 20.617188 16.214844 20.570312 16.292969 C 20.53125 16.355469 20.445312 16.390625 20.382812 16.363281 C 20.320312 16.339844 20.269531 16.378906 20.269531 16.449219 C 20.269531 16.519531 20.308594 16.550781 20.355469 16.523438 C 20.402344 16.492188 20.394531 16.558594 20.335938 16.667969 C 20.203125 16.914062 20.1875 16.914062 20.007812 16.65625 Z M 17.230469 15.699219 C 17.230469 15.519531 17.351562 15.449219 17.507812 15.546875 C 17.601562 15.605469 17.585938 15.648438 17.429688 15.730469 C 17.269531 15.820312 17.230469 15.8125 17.230469 15.699219 Z M 17.984375 14.957031 C 17.984375 14.863281 18.085938 14.648438 18.21875 14.480469 C 18.347656 14.308594 18.550781 13.984375 18.671875 13.757812 C 18.886719 13.34375 19.128906 13.214844 19.179688 13.484375 C 19.195312 13.5625 19.101562 13.738281 18.96875 13.878906 C 18.839844 14.019531 18.730469 14.167969 18.730469 14.207031 C 18.730469 14.25 18.5625 14.472656 18.359375 14.707031 C 18.089844 15.011719 17.988281 15.082031 17.984375 14.957031 Z M 16.996094 14.46875 C 16.851562 14.351562 16.84375 14.328125 16.964844 14.363281 C 17.050781 14.390625 17.144531 14.351562 17.175781 14.273438 C 17.203125 14.195312 17.191406 14.15625 17.144531 14.183594 C 17.023438 14.257812 16.75 14.140625 16.8125 14.039062 C 16.84375 13.992188 16.816406 13.953125 16.757812 13.953125 C 16.6875 13.953125 16.667969 13.871094 16.707031 13.71875 C 16.738281 13.589844 16.726562 13.484375 16.679688 13.484375 C 16.5625 13.484375 16.464844 13.761719 16.535156 13.878906 C 16.570312 13.933594 16.511719 13.929688 16.394531 13.867188 C 16.285156 13.808594 16.195312 13.792969 16.195312 13.832031 C 16.195312 13.875 16.15625 13.847656 16.113281 13.777344 C 16.0625 13.703125 16.078125 13.558594 16.152344 13.414062 C 16.222656 13.28125 16.253906 13.042969 16.222656 12.863281 C 16.195312 12.683594 16.210938 12.546875 16.265625 12.546875 C 16.3125 12.546875 16.6875 12.855469 17.09375 13.230469 C 17.828125 13.917969 17.828125 13.917969 17.507812 14.269531 C 17.199219 14.601562 17.175781 14.613281 16.996094 14.46875 Z M 20.847656 13.753906 C 19.90625 13.117188 19.871094 13.074219 20.085938 12.835938 C 20.257812 12.648438 20.894531 11.125 20.894531 10.902344 C 20.894531 10.699219 20.976562 10.714844 22.066406 11.15625 C 22.996094 11.535156 23.042969 11.566406 22.996094 11.792969 C 22.898438 12.226562 22.664062 12.917969 22.597656 12.960938 C 22.558594 12.984375 22.332031 12.878906 22.09375 12.730469 C 21.558594 12.394531 21.0625 12.246094 21.25 12.472656 C 21.316406 12.554688 21.601562 12.761719 21.882812 12.933594 C 22.164062 13.109375 22.394531 13.285156 22.394531 13.332031 C 22.398438 13.492188 21.894531 14.328125 21.792969 14.328125 C 21.738281 14.324219 21.3125 14.066406 20.847656 13.753906 Z M 15.070312 13.765625 C 15.070312 13.589844 15.09375 13.566406 15.183594 13.652344 C 15.269531 13.742188 15.269531 13.792969 15.183594 13.878906 C 15.09375 13.96875 15.070312 13.941406 15.070312 13.765625 Z M 17.464844 12.726562 C 16.710938 12.078125 16.609375 11.886719 17.03125 11.886719 C 17.1875 11.886719 17.339844 11.84375 17.371094 11.792969 C 17.402344 11.742188 17.511719 11.699219 17.613281 11.699219 C 17.722656 11.699219 17.832031 11.605469 17.882812 11.476562 C 17.929688 11.355469 18.039062 11.226562 18.128906 11.195312 C 18.316406 11.121094 19.078125 11.386719 19.136719 11.546875 C 19.175781 11.65625 18.273438 13.300781 18.175781 13.292969 C 18.148438 13.292969 17.828125 13.035156 17.464844 12.726562 Z M 15.414062 12.847656 C 15.386719 12.808594 15.441406 12.550781 15.535156 12.273438 C 15.734375 11.683594 15.875 11.78125 15.71875 12.402344 C 15.609375 12.828125 15.5 12.992188 15.414062 12.847656 Z M 19.355469 12.773438 C 19.320312 12.683594 19.386719 12.472656 19.507812 12.277344 C 19.792969 11.816406 19.988281 11.367188 20.136719 10.832031 C 20.273438 10.339844 20.519531 10.214844 20.511719 10.644531 C 20.507812 10.949219 19.671875 12.84375 19.519531 12.894531 C 19.460938 12.914062 19.386719 12.859375 19.355469 12.773438 Z M 12.722656 12.738281 C 12.648438 12.6875 12.609375 12.625 12.640625 12.59375 C 12.714844 12.519531 13.003906 12.640625 13.003906 12.742188 C 13.003906 12.851562 12.898438 12.847656 12.722656 12.738281 Z M 14.601562 12.5 C 14.367188 12.363281 14.367188 12.363281 14.65625 12.359375 C 14.851562 12.359375 14.945312 12.402344 14.945312 12.5 C 14.945312 12.671875 14.902344 12.671875 14.601562 12.5 Z M 14.914062 12.125 C 14.945312 12.050781 14.925781 11.960938 14.878906 11.933594 C 14.828125 11.902344 14.789062 11.832031 14.789062 11.777344 C 14.789062 11.714844 14.839844 11.71875 14.929688 11.792969 C 15.144531 11.972656 15.105469 11.753906 14.847656 11.34375 C 14.726562 11.148438 14.59375 10.855469 14.558594 10.6875 C 14.523438 10.523438 14.441406 10.355469 14.382812 10.320312 C 14.230469 10.222656 13.941406 10.214844 13.941406 10.304688 C 13.941406 10.34375 13.871094 10.351562 13.78125 10.316406 C 13.683594 10.277344 13.664062 10.242188 13.734375 10.21875 C 13.796875 10.199219 13.847656 10.140625 13.847656 10.089844 C 13.847656 10.039062 13.761719 10.046875 13.648438 10.109375 C 13.492188 10.191406 13.429688 10.1875 13.367188 10.089844 C 13.304688 9.988281 13.289062 9.996094 13.285156 10.125 C 13.285156 10.234375 13.238281 10.265625 13.132812 10.226562 C 12.976562 10.167969 13.007812 9.523438 13.171875 9.46875 C 13.210938 9.453125 13.230469 9.292969 13.207031 9.105469 C 13.167969 8.769531 13.167969 8.769531 13.941406 9.175781 C 14.714844 9.578125 14.714844 9.578125 14.660156 9.96875 C 14.59375 10.457031 14.730469 10.957031 15.027344 11.3125 C 15.246094 11.574219 15.25 11.597656 15.113281 11.925781 C 14.984375 12.242188 14.800781 12.425781 14.914062 12.125 Z M 13.027344 11.773438 C 12.910156 11.71875 12.816406 11.589844 12.816406 11.492188 C 12.816406 11.347656 12.839844 11.335938 12.945312 11.4375 C 13.019531 11.503906 13.0625 11.574219 13.042969 11.597656 C 13.023438 11.617188 13.078125 11.691406 13.167969 11.757812 C 13.363281 11.90625 13.3125 11.910156 13.027344 11.773438 Z M 14.601562 11.511719 C 14.601562 11.335938 14.625 11.3125 14.714844 11.398438 C 14.800781 11.488281 14.800781 11.535156 14.714844 11.625 C 14.625 11.710938 14.601562 11.6875 14.601562 11.511719 Z M 16.046875 11.273438 C 15.324219 11.007812 15.070312 10.171875 15.464844 9.375 C 15.71875 8.871094 16.03125 8.695312 16.671875 8.695312 C 17.496094 8.695312 18.019531 9.429688 17.847656 10.34375 C 17.691406 11.160156 16.882812 11.578125 16.046875 11.273438 Z M 16.882812 10.75 C 17.476562 10.445312 17.59375 9.796875 17.128906 9.40625 C 16.6875 9.035156 16.121094 9.140625 15.863281 9.648438 C 15.46875 10.402344 16.140625 11.128906 16.882812 10.75 Z M 16.425781 10.3125 C 16.25 10.191406 16.207031 9.941406 16.328125 9.773438 C 16.566406 9.445312 17.109375 9.828125 16.890625 10.171875 C 16.773438 10.359375 16.574219 10.417969 16.425781 10.3125 Z M 12.871094 10.949219 C 12.957031 10.625 12.964844 10.621094 13.242188 10.800781 C 13.523438 10.984375 13.492188 11.109375 13.203125 10.957031 C 13.050781 10.875 12.992188 10.886719 12.910156 11.019531 C 12.824219 11.15625 12.816406 11.144531 12.871094 10.949219 Z M 14.273438 11.042969 C 14.238281 10.992188 14.28125 10.949219 14.359375 10.949219 C 14.441406 10.949219 14.507812 10.992188 14.507812 11.042969 C 14.507812 11.09375 14.464844 11.136719 14.417969 11.136719 C 14.371094 11.136719 14.304688 11.09375 14.273438 11.042969 Z M 22.816406 10.8125 C 22.667969 10.683594 22.527344 10.597656 22.503906 10.621094 C 22.480469 10.644531 22.328125 10.582031 22.164062 10.480469 C 21.996094 10.375 21.839844 10.316406 21.808594 10.347656 C 21.710938 10.445312 21.175781 10.097656 21.175781 9.9375 C 21.175781 9.847656 21.242188 9.542969 21.316406 9.257812 C 21.394531 8.972656 21.457031 8.601562 21.457031 8.429688 C 21.457031 8.257812 21.488281 8.136719 21.527344 8.164062 C 21.566406 8.1875 21.769531 8.230469 21.972656 8.261719 C 22.179688 8.289062 22.679688 8.390625 23.085938 8.480469 C 23.820312 8.648438 23.820312 8.648438 23.757812 9.058594 C 23.65625 9.734375 23.648438 9.742188 23.257812 9.574219 C 23.066406 9.492188 22.859375 9.421875 22.796875 9.417969 C 22.730469 9.417969 22.679688 9.347656 22.675781 9.265625 C 22.675781 9.144531 22.660156 9.140625 22.59375 9.246094 C 22.535156 9.339844 22.488281 9.304688 22.40625 9.105469 C 22.300781 8.835938 22.300781 8.835938 22.351562 9.101562 C 22.382812 9.257812 22.367188 9.34375 22.316406 9.3125 C 22.265625 9.28125 22.15625 9.28125 22.074219 9.316406 C 21.871094 9.394531 22.363281 9.65625 23.035156 9.828125 C 23.472656 9.9375 23.527344 9.976562 23.476562 10.144531 C 23.441406 10.25 23.386719 10.480469 23.351562 10.660156 C 23.269531 11.070312 23.15625 11.101562 22.816406 10.8125 Z M 18.882812 10.734375 C 18.53125 10.535156 18.515625 10.503906 18.5 10.007812 C 18.492188 9.726562 18.414062 9.355469 18.328125 9.191406 C 18.101562 8.761719 18.109375 8.757812 18.757812 8.828125 C 19.957031 8.953125 19.972656 8.960938 19.902344 9.292969 C 19.75 10.03125 19.445312 10.949219 19.351562 10.945312 C 19.296875 10.945312 19.085938 10.851562 18.882812 10.734375 Z M 20.519531 9.75 C 20.519531 9.660156 20.582031 9.226562 20.660156 8.789062 C 20.738281 8.347656 20.800781 7.96875 20.800781 7.945312 C 20.800781 7.921875 20.84375 7.949219 20.894531 8 C 21.050781 8.15625 20.785156 9.914062 20.605469 9.914062 C 20.558594 9.914062 20.519531 9.839844 20.519531 9.75 Z M 14.160156 8.40625 C 13.390625 8.042969 13.390625 8.042969 13.472656 7.753906 C 13.519531 7.597656 13.644531 7.324219 13.75 7.152344 C 13.855469 6.980469 13.941406 6.765625 13.941406 6.671875 C 13.941406 6.519531 13.960938 6.519531 14.105469 6.644531 C 14.40625 6.902344 15.421875 7.472656 15.574219 7.472656 C 15.972656 7.472656 15.460938 6.960938 14.625 6.527344 C 14.039062 6.222656 14.039062 6.222656 14.230469 5.886719 C 14.335938 5.699219 14.53125 5.421875 14.664062 5.269531 C 14.886719 5.015625 14.917969 5.003906 15.121094 5.128906 C 15.242188 5.203125 15.722656 5.488281 16.191406 5.765625 C 16.660156 6.039062 17.042969 6.324219 17.042969 6.394531 C 17.042969 6.46875 16.84375 6.886719 16.601562 7.332031 C 16.226562 8.015625 16.101562 8.164062 15.777344 8.308594 C 15.570312 8.398438 15.339844 8.546875 15.269531 8.632812 C 15.097656 8.839844 15.054688 8.828125 14.160156 8.40625 Z M 18.886719 8.363281 C 18.851562 8.273438 18.707031 8.222656 18.476562 8.222656 C 17.84375 8.21875 17.679688 8.136719 17.746094 7.859375 C 17.78125 7.722656 17.847656 7.601562 17.894531 7.582031 C 17.941406 7.566406 18.105469 7.3125 18.261719 7.019531 C 18.417969 6.726562 18.644531 6.367188 18.757812 6.21875 C 18.972656 5.953125 18.972656 5.953125 19.582031 6.28125 C 20.257812 6.640625 20.214844 6.507812 20.09375 7.78125 C 20.03125 8.417969 20.03125 8.417969 19.570312 8.355469 C 19.253906 8.3125 19.109375 8.328125 19.109375 8.398438 C 19.109375 8.554688 18.949219 8.53125 18.886719 8.363281 Z M 16.707031 7.964844 C 16.71875 7.824219 17.269531 6.664062 17.382812 6.539062 C 17.40625 6.515625 17.488281 6.5625 17.5625 6.640625 C 17.691406 6.765625 17.664062 6.855469 17.316406 7.457031 C 16.941406 8.097656 16.675781 8.320312 16.707031 7.964844 Z M 23.3125 7.878906 C 23.140625 7.832031 23.082031 7.660156 23.242188 7.660156 C 23.292969 7.660156 23.335938 7.617188 23.335938 7.566406 C 23.335938 7.515625 23.269531 7.472656 23.1875 7.472656 C 23.082031 7.472656 23.058594 7.417969 23.105469 7.269531 C 23.15625 7.109375 23.140625 7.082031 23.019531 7.125 C 22.847656 7.191406 22.828125 7.117188 22.960938 6.910156 C 23.042969 6.785156 23.066406 6.785156 23.148438 6.910156 C 23.226562 7.03125 23.238281 7.027344 23.242188 6.886719 C 23.242188 6.796875 23.199219 6.722656 23.148438 6.722656 C 23.097656 6.722656 23.054688 6.679688 23.054688 6.628906 C 23.054688 6.480469 23.550781 6.515625 23.785156 6.679688 C 23.9375 6.785156 23.992188 6.917969 23.992188 7.171875 C 23.988281 7.898438 23.871094 8.023438 23.3125 7.878906 Z M 23.421875 6.964844 C 23.410156 6.59375 23.410156 6.589844 23.339844 6.871094 C 23.304688 7.03125 23.246094 7.203125 23.214844 7.253906 C 23.183594 7.304688 23.21875 7.347656 23.292969 7.347656 C 23.390625 7.347656 23.425781 7.242188 23.421875 6.964844 Z M 22.175781 7.59375 C 22.164062 7.582031 21.945312 7.546875 21.695312 7.515625 C 20.941406 7.425781 20.878906 7.359375 20.90625 6.695312 C 20.925781 6.167969 20.953125 6.097656 21.214844 5.914062 C 21.480469 5.734375 21.683594 5.734375 21.910156 5.925781 C 21.925781 5.941406 21.878906 6.074219 21.808594 6.21875 C 21.703125 6.425781 21.695312 6.5625 21.769531 6.816406 C 21.859375 7.121094 21.871094 7.125 21.90625 6.910156 C 21.925781 6.78125 22.011719 6.601562 22.089844 6.507812 C 22.222656 6.359375 22.191406 6.304688 21.996094 6.335938 C 21.957031 6.339844 21.925781 6.28125 21.925781 6.203125 C 21.925781 6.128906 21.984375 6.0625 22.058594 6.0625 C 22.257812 6.0625 22.324219 6.351562 22.164062 6.53125 C 22.007812 6.703125 21.972656 6.910156 22.105469 6.910156 C 22.148438 6.910156 22.210938 6.816406 22.242188 6.703125 C 22.269531 6.585938 22.320312 6.519531 22.355469 6.554688 C 22.386719 6.585938 22.375 6.6875 22.328125 6.785156 C 22.28125 6.878906 22.273438 7.082031 22.308594 7.238281 C 22.355469 7.433594 22.378906 7.460938 22.390625 7.332031 C 22.410156 7.144531 22.410156 7.144531 22.492188 7.332031 C 22.613281 7.617188 22.601562 7.648438 22.390625 7.632812 C 22.285156 7.625 22.1875 7.609375 22.175781 7.59375 Z M 21.566406 6.503906 C 21.507812 6.433594 21.492188 6.339844 21.527344 6.296875 C 21.566406 6.257812 21.546875 6.25 21.480469 6.289062 C 21.394531 6.339844 21.390625 6.40625 21.464844 6.546875 C 21.519531 6.652344 21.589844 6.714844 21.621094 6.683594 C 21.648438 6.65625 21.625 6.574219 21.566406 6.503906 Z M 22.746094 6.722656 C 22.71875 6.617188 22.734375 6.535156 22.78125 6.535156 C 22.828125 6.535156 22.867188 6.617188 22.867188 6.722656 C 22.867188 6.824219 22.851562 6.910156 22.832031 6.910156 C 22.8125 6.910156 22.773438 6.824219 22.746094 6.722656 Z M 23.640625 6.417969 C 23.523438 6.363281 23.429688 6.28125 23.429688 6.238281 C 23.429688 6.105469 23.585938 6.148438 23.820312 6.34375 C 24.0625 6.542969 23.976562 6.578125 23.640625 6.417969 Z M 23.078125 6.1875 C 22.886719 6.113281 22.945312 5.984375 23.148438 6.035156 C 23.25 6.0625 23.335938 6.121094 23.335938 6.167969 C 23.335938 6.257812 23.261719 6.265625 23.078125 6.1875 Z M 17.378906 5.648438 C 17.074219 5.421875 16.496094 5.039062 16.089844 4.796875 C 15.683594 4.558594 15.351562 4.335938 15.351562 4.304688 C 15.351562 4.210938 15.824219 3.433594 15.882812 3.433594 C 16.050781 3.433594 16.953125 3.742188 17 3.816406 C 17.027344 3.863281 17.128906 3.902344 17.222656 3.902344 C 17.320312 3.902344 17.445312 3.964844 17.507812 4.039062 C 17.570312 4.113281 17.847656 4.226562 18.125 4.285156 C 18.546875 4.382812 18.636719 4.4375 18.683594 4.644531 C 18.714844 4.777344 18.761719 4.957031 18.785156 5.039062 C 18.832031 5.195312 18.191406 6.0625 18.027344 6.0625 C 17.972656 6.0625 17.683594 5.878906 17.378906 5.648438 Z M 23.253906 5.820312 C 23.027344 5.699219 22.792969 5.585938 22.738281 5.5625 C 22.679688 5.542969 22.65625 5.5 22.683594 5.46875 C 22.714844 5.4375 22.894531 5.492188 23.082031 5.597656 C 23.273438 5.699219 23.429688 5.761719 23.429688 5.734375 C 23.429688 5.707031 23.558594 5.75 23.710938 5.828125 C 23.867188 5.910156 23.992188 5.996094 23.992188 6.019531 C 23.992188 6.121094 23.640625 6.023438 23.253906 5.820312 Z M 19.695312 5.726562 C 19.484375 5.632812 19.390625 5.53125 19.390625 5.382812 C 19.390625 5.265625 19.363281 5.074219 19.332031 4.960938 C 19.289062 4.796875 19.316406 4.746094 19.449219 4.746094 C 19.613281 4.742188 19.613281 4.738281 19.460938 4.648438 C 19.371094 4.59375 19.296875 4.488281 19.296875 4.414062 C 19.296875 4.246094 19.335938 4.246094 19.675781 4.421875 C 20.058594 4.621094 20.425781 4.753906 20.425781 4.695312 C 20.425781 4.667969 20.140625 4.519531 19.796875 4.367188 C 19.324219 4.152344 19.199219 4.058594 19.28125 3.976562 C 19.398438 3.859375 21.363281 4.765625 21.363281 4.941406 C 21.363281 5.058594 21.351562 5.054688 20.957031 4.890625 C 20.554688 4.722656 20.484375 4.714844 20.570312 4.847656 C 20.601562 4.902344 20.738281 4.988281 20.871094 5.039062 C 21.03125 5.101562 21.082031 5.164062 21.019531 5.222656 C 20.957031 5.285156 20.832031 5.269531 20.652344 5.175781 C 20.242188 4.960938 20.144531 5.003906 20.507812 5.238281 C 20.824219 5.441406 20.824219 5.441406 20.554688 5.65625 C 20.246094 5.90625 20.125 5.914062 19.695312 5.726562 Z M 21.996094 5.71875 C 21.90625 5.691406 21.832031 5.636719 21.832031 5.585938 C 21.832031 5.460938 21.957031 5.480469 22.167969 5.636719 C 22.351562 5.777344 22.304688 5.796875 21.996094 5.71875 Z M 23.335938 5.445312 C 23.050781 5.308594 22.332031 5.011719 21.738281 4.78125 C 21.144531 4.546875 20.574219 4.304688 20.472656 4.242188 C 20.367188 4.175781 20.09375 4.050781 19.859375 3.957031 C 18.914062 3.589844 16.664062 2.558594 16.707031 2.515625 C 16.808594 2.417969 19.296875 3.429688 20.527344 4.070312 C 20.921875 4.273438 21.429688 4.507812 21.65625 4.585938 C 22.648438 4.941406 23.992188 5.550781 23.992188 5.644531 C 23.992188 5.726562 23.851562 5.683594 23.335938 5.445312 Z M 22.183594 5.390625 C 21.9375 5.300781 21.828125 5.125 22.015625 5.125 C 22.171875 5.125 22.585938 5.339844 22.585938 5.421875 C 22.585938 5.515625 22.519531 5.511719 22.183594 5.390625 Z M 23.710938 5.246094 C 23.632812 5.214844 23.339844 5.078125 23.054688 4.941406 C 22.769531 4.800781 22.515625 4.683594 22.492188 4.675781 C 22.363281 4.648438 22.03125 4.519531 21.691406 4.371094 C 21.484375 4.277344 20.957031 4.050781 20.519531 3.859375 C 20.078125 3.671875 19.652344 3.480469 19.570312 3.4375 C 19.492188 3.394531 19.097656 3.222656 18.695312 3.054688 C 17.628906 2.613281 16.835938 2.203125 17.183594 2.273438 C 17.761719 2.394531 20 3.328125 20.4375 3.636719 C 20.574219 3.730469 20.71875 3.808594 20.753906 3.808594 C 20.789062 3.808594 20.953125 3.871094 21.113281 3.945312 C 21.277344 4.019531 21.683594 4.191406 22.019531 4.328125 C 22.355469 4.464844 22.757812 4.636719 22.914062 4.703125 C 23.070312 4.773438 23.355469 4.894531 23.546875 4.972656 C 23.742188 5.050781 23.898438 5.160156 23.898438 5.214844 C 23.898438 5.269531 23.890625 5.308594 23.875 5.304688 C 23.863281 5.300781 23.789062 5.273438 23.710938 5.246094 Z M 23.617188 4.75 C 23.539062 4.699219 23.382812 4.65625 23.265625 4.65625 C 23.148438 4.65625 23.054688 4.613281 23.054688 4.5625 C 23.054688 4.507812 23 4.464844 22.929688 4.464844 C 22.863281 4.464844 22.484375 4.300781 22.089844 4.101562 C 21.695312 3.902344 21.261719 3.710938 21.121094 3.675781 C 20.703125 3.570312 17.207031 2.019531 17.261719 1.960938 C 17.339844 1.882812 18.597656 2.355469 19.90625 2.957031 C 20.683594 3.308594 21.824219 3.824219 22.445312 4.097656 C 23.0625 4.371094 23.632812 4.648438 23.707031 4.71875 C 23.867188 4.863281 23.820312 4.878906 23.617188 4.75 Z M 23.195312 4.1875 C 22.988281 4.097656 22.585938 3.917969 22.300781 3.785156 C 22.019531 3.652344 21.382812 3.386719 20.894531 3.195312 C 19.480469 2.640625 17.363281 1.660156 17.570312 1.652344 C 17.730469 1.648438 18.878906 2.089844 19.652344 2.457031 C 20.027344 2.632812 20.550781 2.867188 20.816406 2.96875 C 21.324219 3.171875 23.542969 4.179688 23.609375 4.242188 C 23.734375 4.355469 23.519531 4.328125 23.195312 4.1875 Z M 17.648438 3.832031 C 17.234375 3.636719 16.738281 3.417969 16.546875 3.34375 C 16.355469 3.269531 16.195312 3.179688 16.195312 3.144531 C 16.195312 3.046875 16.59375 3.15625 16.761719 3.296875 C 16.839844 3.363281 17.027344 3.449219 17.183594 3.484375 C 17.339844 3.519531 17.554688 3.605469 17.664062 3.671875 C 17.773438 3.742188 18.003906 3.832031 18.175781 3.878906 C 18.347656 3.921875 18.503906 4.007812 18.523438 4.070312 C 18.582031 4.242188 18.46875 4.210938 17.648438 3.832031 Z M 18.683594 3.953125 C 18.632812 3.886719 18.09375 3.605469 17.488281 3.335938 C 16.878906 3.0625 16.394531 2.828125 16.410156 2.8125 C 16.4375 2.785156 17.3125 3.089844 18.191406 3.433594 C 18.492188 3.550781 18.734375 3.703125 18.734375 3.765625 C 18.734375 3.832031 18.785156 3.902344 18.847656 3.925781 C 18.917969 3.949219 18.921875 3.984375 18.867188 4.019531 C 18.8125 4.050781 18.730469 4.023438 18.683594 3.953125 Z M 22.785156 3.570312 C 22.507812 3.445312 22.246094 3.363281 22.199219 3.394531 C 22.152344 3.421875 22.113281 3.398438 22.113281 3.34375 C 22.113281 3.289062 22.0625 3.246094 21.996094 3.246094 C 21.882812 3.246094 20.574219 2.679688 18.828125 1.875 C 17.613281 1.3125 17.929688 1.351562 19.304688 1.929688 C 19.921875 2.1875 20.445312 2.398438 20.472656 2.398438 C 20.503906 2.398438 20.789062 2.519531 21.109375 2.664062 C 21.429688 2.8125 22.082031 3.097656 22.558594 3.300781 C 23.035156 3.503906 23.429688 3.699219 23.429688 3.738281 C 23.429688 3.84375 23.335938 3.820312 22.785156 3.570312 Z M 22.679688 3.058594 C 22.394531 2.90625 22.101562 2.78125 22.027344 2.78125 C 21.859375 2.773438 18.867188 1.496094 18.554688 1.296875 C 18.324219 1.152344 18.324219 1.152344 18.59375 1.015625 C 18.992188 0.804688 20.59375 0.929688 21.222656 1.222656 C 21.71875 1.457031 22.867188 2.496094 22.867188 2.714844 C 22.867188 2.785156 22.953125 2.957031 23.0625 3.09375 C 23.167969 3.226562 23.242188 3.335938 23.226562 3.335938 C 23.207031 3.332031 22.960938 3.207031 22.679688 3.058594 Z M 22.679688 3.058594 " fill-opacity="1" fill-rule="nonzero"/></g></svg>