<svg xmlns="http://www.w3.org/2000/svg" xmlns:xlink="http://www.w3.org/1999/xlink" width="40" zoomAndPan="magnify" viewBox="0 0 30 30.000001" height="40" preserveAspectRatio="xMidYMid meet" version="1.0"><defs><clipPath id="261cc1ea65"><path d="M 12.410156 4.667969 L 17.613281 4.667969 L 17.613281 10.542969 L 12.410156 10.542969 Z M 12.410156 4.667969 " clip-rule="nonzero"/></clipPath><clipPath id="d24337aae1"><path d="M 16.523438 7.332031 C 15.726562 8.492188 15 8.492188 14.78125 8.273438 C 14.492188 8.128906 14.203125 7.257812 14.273438 7.113281 C 14.417969 7.039062 15.21875 7.695312 15.363281 7.546875 C 15.507812 7.476562 15 6.386719 15 6.386719 C 15.074219 6.386719 15.945312 7.695312 15.796875 8.054688 C 15.652344 8.492188 14.636719 8.925781 14.054688 8.855469 C 13.546875 8.78125 12.675781 7.984375 12.460938 7.402344 C 12.386719 7.039062 12.53125 6.53125 12.824219 6.097656 C 13.183594 5.515625 14.347656 4.71875 15 4.71875 C 15.433594 4.644531 15.871094 4.863281 16.160156 5.296875 C 16.667969 6.023438 16.960938 8.78125 16.523438 9.652344 C 16.304688 10.160156 15.652344 10.523438 15.21875 10.523438 C 14.78125 10.453125 14.128906 9.871094 14.054688 9.507812 C 13.984375 9.074219 14.710938 8.054688 15.074219 7.984375 C 15.433594 7.839844 16.015625 8.054688 16.234375 8.347656 C 16.453125 8.566406 16.667969 9.144531 16.523438 9.507812 C 16.378906 9.945312 15.363281 10.523438 14.925781 10.453125 C 14.636719 10.378906 14.273438 10.015625 14.054688 9.652344 C 13.839844 8.925781 13.984375 6.675781 14.128906 6.605469 C 14.273438 6.605469 14.636719 7.695312 14.78125 7.695312 C 14.855469 7.695312 14.636719 6.605469 14.855469 6.53125 C 15 6.460938 15.582031 6.894531 15.726562 7.183594 C 15.871094 7.476562 15.871094 8.054688 15.652344 8.347656 C 15.433594 8.636719 14.710938 9.074219 14.347656 8.925781 C 13.910156 8.78125 13.257812 7.332031 13.257812 6.675781 C 13.257812 6.242188 13.546875 5.734375 13.910156 5.515625 C 14.347656 5.152344 15.582031 5.226562 16.234375 5.296875 C 16.667969 5.371094 17.175781 5.515625 17.394531 5.878906 C 17.683594 6.316406 17.613281 7.839844 17.25 8.347656 C 17.03125 8.710938 16.523438 8.925781 16.015625 8.925781 C 15.363281 9 13.765625 8.492188 13.546875 7.910156 C 13.257812 7.402344 13.839844 5.804688 14.347656 5.589844 C 14.855469 5.371094 16.160156 6.023438 16.453125 6.53125 C 16.667969 6.96875 16.523438 7.839844 16.234375 8.128906 C 15.945312 8.417969 15 8.566406 14.78125 8.273438 C 14.417969 7.984375 14.492188 6.460938 14.78125 6.167969 C 15.074219 5.953125 15.796875 5.953125 16.089844 6.167969 C 16.378906 6.386719 16.523438 7.332031 16.523438 7.332031 " clip-rule="nonzero"/></clipPath><clipPath id="279b7f5693"><path d="M 0.410156 0.667969 L 5.613281 0.667969 L 5.613281 6.542969 L 0.410156 6.542969 Z M 0.410156 0.667969 " clip-rule="nonzero"/></clipPath><clipPath id="909125d4d9"><path d="M 4.523438 3.332031 C 3.726562 4.492188 3 4.492188 2.78125 4.273438 C 2.492188 4.128906 2.203125 3.257812 2.273438 3.113281 C 2.417969 3.039062 3.21875 3.695312 3.363281 3.546875 C 3.507812 3.476562 3 2.386719 3 2.386719 C 3.074219 2.386719 3.945312 3.695312 3.796875 4.054688 C 3.652344 4.492188 2.636719 4.925781 2.054688 4.855469 C 1.546875 4.78125 0.675781 3.984375 0.460938 3.402344 C 0.386719 3.039062 0.53125 2.53125 0.824219 2.097656 C 1.183594 1.515625 2.347656 0.71875 3 0.71875 C 3.433594 0.644531 3.871094 0.863281 4.160156 1.296875 C 4.667969 2.023438 4.960938 4.78125 4.523438 5.652344 C 4.304688 6.160156 3.652344 6.523438 3.21875 6.523438 C 2.78125 6.453125 2.128906 5.871094 2.054688 5.507812 C 1.984375 5.074219 2.710938 4.054688 3.074219 3.984375 C 3.433594 3.839844 4.015625 4.054688 4.234375 4.347656 C 4.453125 4.566406 4.667969 5.144531 4.523438 5.507812 C 4.378906 5.945312 3.363281 6.523438 2.925781 6.453125 C 2.636719 6.378906 2.273438 6.015625 2.054688 5.652344 C 1.839844 4.925781 1.984375 2.675781 2.128906 2.605469 C 2.273438 2.605469 2.636719 3.695312 2.78125 3.695312 C 2.855469 3.695312 2.636719 2.605469 2.855469 2.53125 C 3 2.460938 3.582031 2.894531 3.726562 3.183594 C 3.871094 3.476562 3.871094 4.054688 3.652344 4.347656 C 3.433594 4.636719 2.710938 5.074219 2.347656 4.925781 C 1.910156 4.78125 1.257812 3.332031 1.257812 2.675781 C 1.257812 2.242188 1.546875 1.734375 1.910156 1.515625 C 2.347656 1.152344 3.582031 1.226562 4.234375 1.296875 C 4.667969 1.371094 5.175781 1.515625 5.394531 1.878906 C 5.683594 2.316406 5.613281 3.839844 5.25 4.347656 C 5.03125 4.710938 4.523438 4.925781 4.015625 4.925781 C 3.363281 5 1.765625 4.492188 1.546875 3.910156 C 1.257812 3.402344 1.839844 1.804688 2.347656 1.589844 C 2.855469 1.371094 4.160156 2.023438 4.453125 2.53125 C 4.667969 2.96875 4.523438 3.839844 4.234375 4.128906 C 3.945312 4.417969 3 4.566406 2.78125 4.273438 C 2.417969 3.984375 2.492188 2.460938 2.78125 2.167969 C 3.074219 1.953125 3.796875 1.953125 4.089844 2.167969 C 4.378906 2.386719 4.523438 3.332031 4.523438 3.332031 " clip-rule="nonzero"/></clipPath><clipPath id="54668574c6"><rect x="0" width="6" y="0" height="7"/></clipPath><clipPath id="8ce06c299b"><path d="M 14.148438 7 L 16.183594 7 L 16.183594 9.699219 L 14.148438 9.699219 Z M 14.148438 7 " clip-rule="nonzero"/></clipPath><clipPath id="79b6ee6661"><path d="M 16.089844 8.710938 C 14.347656 9.507812 14.054688 8.203125 14.203125 7.839844 C 14.347656 7.546875 14.925781 7.402344 15.21875 7.476562 C 15.582031 7.546875 16.089844 8.054688 16.160156 8.417969 C 16.234375 8.78125 15.796875 9.433594 15.507812 9.582031 C 15.21875 9.726562 14.636719 9.726562 14.492188 9.507812 C 14.203125 9.21875 14.128906 7.910156 14.417969 7.621094 C 14.636719 7.402344 15.144531 7.402344 15.433594 7.546875 C 15.796875 7.695312 16.234375 8.347656 16.160156 8.636719 C 16.089844 9 14.78125 9.652344 14.492188 9.507812 C 14.128906 9.289062 14.054688 7.695312 14.347656 7.332031 C 14.566406 7.039062 15.507812 6.894531 15.796875 7.113281 C 16.089844 7.332031 16.089844 8.710938 16.089844 8.710938 " clip-rule="nonzero"/></clipPath><clipPath id="fb0701110f"><path d="M 0.148438 0 L 2.183594 0 L 2.183594 2.699219 L 0.148438 2.699219 Z M 0.148438 0 " clip-rule="nonzero"/></clipPath><clipPath id="cd6ea8d018"><path d="M 2.089844 1.710938 C 0.347656 2.507812 0.0546875 1.203125 0.203125 0.839844 C 0.347656 0.546875 0.925781 0.402344 1.21875 0.476562 C 1.582031 0.546875 2.089844 1.054688 2.160156 1.417969 C 2.234375 1.78125 1.796875 2.433594 1.507812 2.582031 C 1.21875 2.726562 0.636719 2.726562 0.492188 2.507812 C 0.203125 2.21875 0.128906 0.910156 0.417969 0.621094 C 0.636719 0.402344 1.144531 0.402344 1.433594 0.546875 C 1.796875 0.695312 2.234375 1.347656 2.160156 1.636719 C 2.089844 2 0.78125 2.652344 0.492188 2.507812 C 0.128906 2.289062 0.0546875 0.695312 0.347656 0.332031 C 0.566406 0.0390625 1.507812 -0.105469 1.796875 0.113281 C 2.089844 0.332031 2.089844 1.710938 2.089844 1.710938 " clip-rule="nonzero"/></clipPath><clipPath id="7f1a8c6691"><rect x="0" width="3" y="0" height="3"/></clipPath><clipPath id="3c2a311994"><path d="M 13.101562 6.742188 L 17.046875 6.742188 L 17.046875 9.667969 L 13.101562 9.667969 Z M 13.101562 6.742188 " clip-rule="nonzero"/></clipPath><clipPath id="7a677b0cf0"><path d="M 16.453125 8.78125 C 13.402344 9.433594 13.113281 9.074219 13.113281 8.710938 C 13.113281 8.347656 13.476562 7.621094 13.765625 7.546875 C 14.203125 7.476562 15.289062 8.203125 15.289062 8.566406 C 15.363281 8.925781 14.203125 9.726562 13.839844 9.652344 C 13.476562 9.582031 13.113281 8.855469 13.113281 8.492188 C 13.113281 8.203125 13.332031 7.839844 13.695312 7.621094 C 14.203125 7.183594 15.871094 6.53125 16.453125 6.824219 C 16.816406 6.96875 17.03125 7.546875 17.03125 7.910156 C 16.960938 8.203125 16.453125 8.78125 16.453125 8.78125 " clip-rule="nonzero"/></clipPath><clipPath id="09985374c8"><path d="M 0.101562 0.742188 L 4.046875 0.742188 L 4.046875 3.667969 L 0.101562 3.667969 Z M 0.101562 0.742188 " clip-rule="nonzero"/></clipPath><clipPath id="ba819f56ca"><path d="M 3.453125 2.78125 C 0.402344 3.433594 0.113281 3.074219 0.113281 2.710938 C 0.113281 2.347656 0.476562 1.621094 0.765625 1.546875 C 1.203125 1.476562 2.289062 2.203125 2.289062 2.566406 C 2.363281 2.925781 1.203125 3.726562 0.839844 3.652344 C 0.476562 3.582031 0.113281 2.855469 0.113281 2.492188 C 0.113281 2.203125 0.332031 1.839844 0.695312 1.621094 C 1.203125 1.183594 2.871094 0.53125 3.453125 0.824219 C 3.816406 0.96875 4.03125 1.546875 4.03125 1.910156 C 3.960938 2.203125 3.453125 2.78125 3.453125 2.78125 " clip-rule="nonzero"/></clipPath><clipPath id="6a9c72a7c1"><rect x="0" width="5" y="0" height="4"/></clipPath><clipPath id="a9e8e31350"><path d="M 15.902344 16.171875 L 22.226562 16.171875 L 22.226562 24.027344 L 15.902344 24.027344 Z M 15.902344 16.171875 " clip-rule="nonzero"/></clipPath><clipPath id="83c8839bf9"><path d="M 19.136719 19.324219 C 18.496094 19.394531 18.640625 18.402344 18.851562 18.402344 C 18.992188 18.328125 19.558594 19.109375 19.488281 19.183594 C 19.417969 19.324219 18.570312 18.753906 18.355469 18.96875 C 17.929688 19.253906 18.570312 21.8125 18.214844 22.164062 C 17.929688 22.378906 17.433594 22.238281 17.082031 21.953125 C 16.515625 21.457031 15.875 19.183594 15.945312 18.402344 C 16.019531 17.972656 16.371094 17.40625 16.65625 17.40625 C 16.867188 17.40625 17.011719 18.257812 17.433594 18.472656 C 18 18.753906 19.277344 18.257812 19.773438 18.753906 C 20.269531 19.394531 20.269531 21.527344 19.914062 22.378906 C 19.632812 22.875 18.992188 23.515625 18.640625 23.445312 C 18.144531 23.445312 17.292969 22.519531 17.363281 22.023438 C 17.363281 21.382812 18.992188 20.675781 19.417969 19.964844 C 19.703125 19.394531 19.488281 18.683594 19.773438 18.257812 C 20.054688 17.902344 20.695312 17.617188 21.121094 17.617188 C 21.472656 17.691406 21.96875 17.972656 22.039062 18.328125 C 22.253906 19.253906 20.269531 23.089844 19.277344 23.730469 C 18.851562 24.085938 18.214844 24.011719 17.859375 23.871094 C 17.578125 23.730469 17.222656 23.230469 17.222656 22.875 C 17.222656 22.519531 17.503906 21.882812 17.789062 21.738281 C 18.144531 21.527344 18.992188 21.597656 19.347656 21.8125 C 19.632812 22.023438 19.773438 22.59375 19.703125 22.949219 C 19.632812 23.300781 19.066406 23.941406 18.640625 24.011719 C 18.285156 24.085938 17.789062 23.871094 17.578125 23.585938 C 17.292969 23.300781 17.222656 22.449219 17.433594 22.09375 C 17.578125 21.8125 18.074219 21.527344 18.425781 21.527344 C 18.78125 21.527344 19.277344 21.738281 19.488281 22.023438 C 19.703125 22.308594 19.773438 22.875 19.632812 23.230469 C 19.558594 23.515625 19.136719 24.011719 18.78125 24.011719 C 18.285156 24.011719 17.363281 23.445312 17.222656 22.875 C 17.011719 22.164062 17.929688 20.601562 18.496094 19.75 C 19.066406 18.898438 19.84375 17.902344 20.480469 17.691406 C 20.90625 17.546875 21.402344 17.691406 21.6875 17.902344 C 21.96875 18.117188 22.183594 18.542969 22.183594 18.96875 C 22.253906 19.679688 21.6875 21.027344 21.121094 21.8125 C 20.625 22.519531 19.632812 23.375 18.921875 23.445312 C 18.355469 23.445312 17.648438 23.089844 17.433594 22.664062 C 17.152344 22.164062 17.71875 21.457031 17.648438 20.746094 C 17.578125 19.820312 16.441406 18.257812 16.585938 17.476562 C 16.65625 16.910156 17.082031 16.480469 17.503906 16.269531 C 17.859375 16.128906 18.570312 16.199219 18.921875 16.554688 C 19.417969 17.121094 19.558594 19.964844 19.136719 20.320312 C 18.921875 20.53125 18 20.105469 18 20.105469 C 18 20.175781 19.84375 20.320312 20.199219 20.746094 C 20.410156 21.101562 20.410156 21.882812 20.128906 22.238281 C 19.773438 22.664062 18.496094 23.160156 17.859375 23.019531 C 17.222656 22.804688 16.585938 21.8125 16.371094 20.957031 C 16.160156 20.035156 16.230469 18.117188 16.796875 17.40625 C 17.222656 16.835938 18.074219 16.554688 18.710938 16.554688 C 19.417969 16.554688 20.480469 16.835938 20.835938 17.335938 C 21.191406 17.832031 21.046875 18.898438 20.835938 19.609375 C 20.550781 20.320312 19.914062 21.3125 19.277344 21.457031 C 18.570312 21.667969 17.152344 21.101562 16.65625 20.601562 C 16.371094 20.320312 16.300781 19.75 16.300781 19.324219 C 16.300781 18.96875 16.371094 18.613281 16.65625 18.257812 C 17.082031 17.832031 18.214844 17.121094 18.78125 17.191406 C 19.277344 17.191406 19.84375 17.761719 19.914062 18.117188 C 19.984375 18.472656 19.136719 19.324219 19.136719 19.324219 " clip-rule="nonzero"/></clipPath><clipPath id="f8d692f42c"><path d="M 0.902344 0.171875 L 7.226562 0.171875 L 7.226562 8.027344 L 0.902344 8.027344 Z M 0.902344 0.171875 " clip-rule="nonzero"/></clipPath><clipPath id="b1eaa93b8f"><path d="M 4.136719 3.324219 C 3.496094 3.394531 3.640625 2.402344 3.851562 2.402344 C 3.992188 2.328125 4.558594 3.109375 4.488281 3.183594 C 4.417969 3.324219 3.570312 2.753906 3.355469 2.96875 C 2.929688 3.253906 3.570312 5.8125 3.214844 6.164062 C 2.929688 6.378906 2.433594 6.238281 2.082031 5.953125 C 1.515625 5.457031 0.875 3.183594 0.945312 2.402344 C 1.019531 1.972656 1.371094 1.40625 1.65625 1.40625 C 1.867188 1.40625 2.011719 2.257812 2.433594 2.472656 C 3 2.753906 4.277344 2.257812 4.773438 2.753906 C 5.269531 3.394531 5.269531 5.527344 4.914062 6.378906 C 4.632812 6.875 3.992188 7.515625 3.640625 7.445312 C 3.144531 7.445312 2.292969 6.519531 2.363281 6.023438 C 2.363281 5.382812 3.992188 4.675781 4.417969 3.964844 C 4.703125 3.394531 4.488281 2.683594 4.773438 2.257812 C 5.054688 1.902344 5.695312 1.617188 6.121094 1.617188 C 6.472656 1.691406 6.96875 1.972656 7.039062 2.328125 C 7.253906 3.253906 5.269531 7.089844 4.277344 7.730469 C 3.851562 8.085938 3.214844 8.011719 2.859375 7.871094 C 2.578125 7.730469 2.222656 7.230469 2.222656 6.875 C 2.222656 6.519531 2.503906 5.882812 2.789062 5.738281 C 3.144531 5.527344 3.992188 5.597656 4.347656 5.8125 C 4.632812 6.023438 4.773438 6.59375 4.703125 6.949219 C 4.632812 7.300781 4.066406 7.941406 3.640625 8.011719 C 3.285156 8.085938 2.789062 7.871094 2.578125 7.585938 C 2.292969 7.300781 2.222656 6.449219 2.433594 6.09375 C 2.578125 5.8125 3.074219 5.527344 3.425781 5.527344 C 3.78125 5.527344 4.277344 5.738281 4.488281 6.023438 C 4.703125 6.308594 4.773438 6.875 4.632812 7.230469 C 4.558594 7.515625 4.136719 8.011719 3.78125 8.011719 C 3.285156 8.011719 2.363281 7.445312 2.222656 6.875 C 2.011719 6.164062 2.929688 4.601562 3.496094 3.75 C 4.066406 2.898438 4.84375 1.902344 5.480469 1.691406 C 5.90625 1.546875 6.402344 1.691406 6.6875 1.902344 C 6.96875 2.117188 7.183594 2.542969 7.183594 2.96875 C 7.253906 3.679688 6.6875 5.027344 6.121094 5.8125 C 5.625 6.519531 4.632812 7.375 3.921875 7.445312 C 3.355469 7.445312 2.648438 7.089844 2.433594 6.664062 C 2.152344 6.164062 2.71875 5.457031 2.648438 4.746094 C 2.578125 3.820312 1.441406 2.257812 1.585938 1.476562 C 1.65625 0.910156 2.082031 0.480469 2.503906 0.269531 C 2.859375 0.128906 3.570312 0.199219 3.921875 0.554688 C 4.417969 1.121094 4.558594 3.964844 4.136719 4.320312 C 3.921875 4.53125 3 4.105469 3 4.105469 C 3 4.175781 4.84375 4.320312 5.199219 4.746094 C 5.410156 5.101562 5.410156 5.882812 5.128906 6.238281 C 4.773438 6.664062 3.496094 7.160156 2.859375 7.019531 C 2.222656 6.804688 1.585938 5.8125 1.371094 4.957031 C 1.160156 4.035156 1.230469 2.117188 1.796875 1.40625 C 2.222656 0.835938 3.074219 0.554688 3.710938 0.554688 C 4.417969 0.554688 5.480469 0.835938 5.835938 1.335938 C 6.191406 1.832031 6.046875 2.898438 5.835938 3.609375 C 5.550781 4.320312 4.914062 5.3125 4.277344 5.457031 C 3.570312 5.667969 2.152344 5.101562 1.65625 4.601562 C 1.371094 4.320312 1.300781 3.75 1.300781 3.324219 C 1.300781 2.96875 1.371094 2.613281 1.65625 2.257812 C 2.082031 1.832031 3.214844 1.121094 3.78125 1.191406 C 4.277344 1.191406 4.84375 1.761719 4.914062 2.117188 C 4.984375 2.472656 4.136719 3.324219 4.136719 3.324219 " clip-rule="nonzero"/></clipPath><clipPath id="8fa8a10317"><rect x="0" width="8" y="0" height="9"/></clipPath><clipPath id="9a9387f3e1"><path d="M 18.621094 16.0625 L 20.53125 16.0625 L 20.53125 18.335938 L 18.621094 18.335938 Z M 18.621094 16.0625 " clip-rule="nonzero"/></clipPath><clipPath id="9cf8c0fb6c"><path d="M 19.789062 16.183594 C 20.515625 18.21875 19.425781 17.78125 19.425781 17.566406 C 19.425781 17.347656 20.226562 16.765625 20.445312 16.839844 C 20.589844 16.984375 20.515625 18.144531 20.296875 18.289062 C 20.007812 18.433594 18.917969 17.636719 18.703125 17.203125 C 18.554688 16.839844 18.628906 16.257812 18.773438 16.113281 C 18.992188 15.96875 19.789062 16.183594 19.789062 16.183594 " clip-rule="nonzero"/></clipPath><clipPath id="7785f8c9e5"><path d="M 0.621094 0.0625 L 2.53125 0.0625 L 2.53125 2.335938 L 0.621094 2.335938 Z M 0.621094 0.0625 " clip-rule="nonzero"/></clipPath><clipPath id="326a98212e"><path d="M 1.789062 0.183594 C 2.515625 2.21875 1.425781 1.78125 1.425781 1.566406 C 1.425781 1.347656 2.226562 0.765625 2.445312 0.839844 C 2.589844 0.984375 2.515625 2.144531 2.296875 2.289062 C 2.007812 2.433594 0.917969 1.636719 0.703125 1.203125 C 0.554688 0.839844 0.628906 0.257812 0.773438 0.113281 C 0.992188 -0.03125 1.789062 0.183594 1.789062 0.183594 " clip-rule="nonzero"/></clipPath><clipPath id="beed3b858e"><rect x="0" width="3" y="0" height="3"/></clipPath><clipPath id="b5215e02a5"><path d="M 14.117188 9.714844 L 15.621094 9.714844 L 15.621094 11.414062 L 14.117188 11.414062 Z M 14.117188 9.714844 " clip-rule="nonzero"/></clipPath><clipPath id="24a9e6d677"><path d="M 14.417969 9.945312 C 15.652344 10.015625 15.582031 10.960938 15.433594 11.03125 C 15.21875 11.175781 14.347656 10.742188 14.347656 10.523438 C 14.273438 10.304688 15 9.652344 15.21875 9.726562 C 15.433594 9.796875 15.726562 10.742188 15.582031 11.03125 C 15.433594 11.25 14.855469 11.46875 14.636719 11.394531 C 14.417969 11.324219 14.128906 10.523438 14.128906 10.523438 " clip-rule="nonzero"/></clipPath><clipPath id="1cb839ae4f"><path d="M 0.117188 0.714844 L 1.621094 0.714844 L 1.621094 2.414062 L 0.117188 2.414062 Z M 0.117188 0.714844 " clip-rule="nonzero"/></clipPath><clipPath id="1cb83bd517"><path d="M 0.417969 0.945312 C 1.652344 1.015625 1.582031 1.960938 1.433594 2.03125 C 1.21875 2.175781 0.347656 1.742188 0.347656 1.523438 C 0.273438 1.304688 1 0.652344 1.21875 0.726562 C 1.433594 0.796875 1.726562 1.742188 1.582031 2.03125 C 1.433594 2.25 0.855469 2.46875 0.636719 2.394531 C 0.417969 2.324219 0.128906 1.523438 0.128906 1.523438 " clip-rule="nonzero"/></clipPath><clipPath id="709e70dc0c"><rect x="0" width="2" y="0" height="3"/></clipPath><clipPath id="954880331e"><path d="M 15.050781 18.5625 L 17.421875 18.5625 L 17.421875 22.085938 L 15.050781 22.085938 Z M 15.050781 18.5625 " clip-rule="nonzero"/></clipPath><clipPath id="62bfc9e664"><path d="M 16.453125 19.015625 C 17.46875 21.628906 17.175781 22.066406 17.03125 22.066406 C 16.742188 22.066406 16.015625 21.265625 16.089844 21.121094 C 16.160156 20.902344 17.324219 20.902344 17.394531 21.046875 C 17.46875 21.195312 16.742188 22.066406 16.378906 21.992188 C 15.945312 21.917969 15.144531 20.175781 15.074219 19.523438 C 15.074219 19.160156 15.21875 18.726562 15.433594 18.582031 C 15.652344 18.507812 16.453125 19.015625 16.453125 19.015625 " clip-rule="nonzero"/></clipPath><clipPath id="70b0791ec4"><path d="M 0.0507812 0.5625 L 2.421875 0.5625 L 2.421875 4.066406 L 0.0507812 4.066406 Z M 0.0507812 0.5625 " clip-rule="nonzero"/></clipPath><clipPath id="26f76f4756"><path d="M 1.453125 1.015625 C 2.46875 3.628906 2.175781 4.066406 2.03125 4.066406 C 1.742188 4.066406 1.015625 3.265625 1.089844 3.121094 C 1.160156 2.902344 2.324219 2.902344 2.394531 3.046875 C 2.46875 3.195312 1.742188 4.066406 1.378906 3.992188 C 0.945312 3.917969 0.144531 2.175781 0.0742188 1.523438 C 0.0742188 1.160156 0.21875 0.726562 0.433594 0.582031 C 0.652344 0.507812 1.453125 1.015625 1.453125 1.015625 " clip-rule="nonzero"/></clipPath><clipPath id="86a80af9f7"><rect x="0" width="3" y="0" height="5"/></clipPath><clipPath id="56108992b0"><path d="M 16.597656 21.703125 L 18 21.703125 L 18 22.886719 L 16.597656 22.886719 Z M 16.597656 21.703125 " clip-rule="nonzero"/></clipPath><clipPath id="b7b0a1522c"><path d="M 17.976562 22.136719 C 17.324219 23.082031 16.816406 22.933594 16.667969 22.71875 C 16.523438 22.5 16.667969 21.917969 16.816406 21.773438 C 17.03125 21.628906 17.757812 21.847656 17.757812 21.847656 " clip-rule="nonzero"/></clipPath><clipPath id="24e8eaaa80"><path d="M 0.597656 0.703125 L 2 0.703125 L 2 1.886719 L 0.597656 1.886719 Z M 0.597656 0.703125 " clip-rule="nonzero"/></clipPath><clipPath id="988b40649b"><path d="M 1.976562 1.136719 C 1.324219 2.082031 0.816406 1.933594 0.667969 1.71875 C 0.523438 1.5 0.667969 0.917969 0.816406 0.773438 C 1.03125 0.628906 1.757812 0.847656 1.757812 0.847656 " clip-rule="nonzero"/></clipPath><clipPath id="3ee0cf63b4"><rect x="0" width="2" y="0" height="2"/></clipPath><clipPath id="f63aef79d0"><path d="M 17.761719 15.941406 L 19.164062 15.941406 L 19.164062 17.125 L 17.761719 17.125 Z M 17.761719 15.941406 " clip-rule="nonzero"/></clipPath><clipPath id="c1638bb45a"><path d="M 19.136719 16.332031 C 18.484375 17.347656 17.976562 17.128906 17.832031 16.984375 C 17.683594 16.765625 17.832031 16.183594 17.976562 16.039062 C 18.195312 15.824219 18.917969 16.039062 18.917969 16.039062 " clip-rule="nonzero"/></clipPath><clipPath id="b0ac63e15a"><path d="M 0.761719 0.941406 L 2.164062 0.941406 L 2.164062 2.125 L 0.761719 2.125 Z M 0.761719 0.941406 " clip-rule="nonzero"/></clipPath><clipPath id="f13c572d7c"><path d="M 2.136719 1.332031 C 1.484375 2.347656 0.976562 2.128906 0.832031 1.984375 C 0.683594 1.765625 0.832031 1.183594 0.976562 1.039062 C 1.195312 0.824219 1.917969 1.039062 1.917969 1.039062 " clip-rule="nonzero"/></clipPath><clipPath id="4700c03768"><rect x="0" width="3" y="0" height="3"/></clipPath><clipPath id="d7d2306d86"><path d="M 15.539062 4.910156 L 16.914062 4.910156 L 16.914062 6.09375 L 15.539062 6.09375 Z M 15.539062 4.910156 " clip-rule="nonzero"/></clipPath><clipPath id="c241c0eac2"><path d="M 16.886719 5.296875 C 16.304688 6.316406 15.726562 6.097656 15.582031 5.953125 C 15.507812 5.734375 15.582031 5.152344 15.796875 5.007812 C 15.945312 4.789062 16.742188 5.007812 16.742188 5.007812 " clip-rule="nonzero"/></clipPath><clipPath id="576f1c7261"><path d="M 0.539062 0.910156 L 1.914062 0.910156 L 1.914062 2.09375 L 0.539062 2.09375 Z M 0.539062 0.910156 " clip-rule="nonzero"/></clipPath><clipPath id="9d446577d5"><path d="M 1.886719 1.296875 C 1.304688 2.316406 0.726562 2.097656 0.582031 1.953125 C 0.507812 1.734375 0.582031 1.152344 0.796875 1.007812 C 0.945312 0.789062 1.742188 1.007812 1.742188 1.007812 " clip-rule="nonzero"/></clipPath><clipPath id="433b1e28aa"><rect x="0" width="2" y="0" height="3"/></clipPath><clipPath id="69d6b7fc37"><path d="M 7.734375 3.910156 L 22.253906 3.910156 L 22.253906 24.960938 L 7.734375 24.960938 Z M 7.734375 3.910156 " clip-rule="nonzero"/></clipPath></defs><g clip-path="url(#261cc1ea65)"><g clip-path="url(#d24337aae1)"><g transform="matrix(1, 0, 0, 1, 12, 4)"><g clip-path="url(#54668574c6)"><g clip-path="url(#279b7f5693)"><g clip-path="url(#909125d4d9)"><rect x="-18.6" width="43.2" fill="#b58db6" height="43.200001" y="-10.6" fill-opacity="1"/></g></g></g></g></g></g><g clip-path="url(#8ce06c299b)"><g clip-path="url(#79b6ee6661)"><g transform="matrix(1, 0, 0, 1, 14, 7)"><g clip-path="url(#7f1a8c6691)"><g clip-path="url(#fb0701110f)"><g clip-path="url(#cd6ea8d018)"><rect x="-20.6" width="43.2" fill="#b58db6" height="43.200001" y="-13.6" fill-opacity="1"/></g></g></g></g></g></g><g clip-path="url(#3c2a311994)"><g clip-path="url(#7a677b0cf0)"><g transform="matrix(1, 0, 0, 1, 13, 6)"><g clip-path="url(#6a9c72a7c1)"><g clip-path="url(#09985374c8)"><g clip-path="url(#ba819f56ca)"><rect x="-19.6" width="43.2" fill="#b58db6" height="43.200001" y="-12.6" fill-opacity="1"/></g></g></g></g></g></g><g clip-path="url(#a9e8e31350)"><g clip-path="url(#83c8839bf9)"><g transform="matrix(1, 0, 0, 1, 15, 16)"><g clip-path="url(#8fa8a10317)"><g clip-path="url(#f8d692f42c)"><g clip-path="url(#b1eaa93b8f)"><rect x="-21.6" width="43.2" fill="#b58db6" height="43.200001" y="-22.6" fill-opacity="1"/></g></g></g></g></g></g><g clip-path="url(#9a9387f3e1)"><g clip-path="url(#9cf8c0fb6c)"><g transform="matrix(1, 0, 0, 1, 18, 16)"><g clip-path="url(#beed3b858e)"><g clip-path="url(#7785f8c9e5)"><g clip-path="url(#326a98212e)"><rect x="-24.6" width="43.2" fill="#b58db6" height="43.200001" y="-22.6" fill-opacity="1"/></g></g></g></g></g></g><g clip-path="url(#b5215e02a5)"><g clip-path="url(#24a9e6d677)"><g transform="matrix(1, 0, 0, 1, 14, 9)"><g clip-path="url(#709e70dc0c)"><g clip-path="url(#1cb839ae4f)"><g clip-path="url(#1cb83bd517)"><rect x="-20.6" width="43.2" fill="#b58db6" height="43.200001" y="-15.6" fill-opacity="1"/></g></g></g></g></g></g><g clip-path="url(#954880331e)"><g clip-path="url(#62bfc9e664)"><g transform="matrix(1, 0, 0, 1, 15, 18)"><g clip-path="url(#86a80af9f7)"><g clip-path="url(#70b0791ec4)"><g clip-path="url(#26f76f4756)"><rect x="-21.6" width="43.2" fill="#b58db6" height="43.200001" y="-24.6" fill-opacity="1"/></g></g></g></g></g></g><g clip-path="url(#56108992b0)"><g clip-path="url(#b7b0a1522c)"><g transform="matrix(1, 0, 0, 1, 16, 21)"><g clip-path="url(#3ee0cf63b4)"><g clip-path="url(#24e8eaaa80)"><g clip-path="url(#988b40649b)"><rect x="-22.6" width="43.2" fill="#b58db6" height="43.200001" y="-27.6" fill-opacity="1"/></g></g></g></g></g></g><g clip-path="url(#f63aef79d0)"><g clip-path="url(#c1638bb45a)"><g transform="matrix(1, 0, 0, 1, 17, 15)"><g clip-path="url(#4700c03768)"><g clip-path="url(#b0ac63e15a)"><g clip-path="url(#f13c572d7c)"><rect x="-23.6" width="43.2" fill="#b58db6" height="43.200001" y="-21.6" fill-opacity="1"/></g></g></g></g></g></g><g clip-path="url(#d7d2306d86)"><g clip-path="url(#c241c0eac2)"><g transform="matrix(1, 0, 0, 1, 15, 4)"><g clip-path="url(#433b1e28aa)"><g clip-path="url(#576f1c7261)"><g clip-path="url(#9d446577d5)"><rect x="-21.6" width="43.2" fill="#b58db6" height="43.200001" y="-10.6" fill-opacity="1"/></g></g></g></g></g></g><g clip-path="url(#69d6b7fc37)"><path fill="#3f0f87" d="M 11.519531 9.589844 C 11.792969 9.582031 12.015625 9.800781 12.023438 10.074219 C 12.027344 10.347656 11.808594 10.570312 11.539062 10.578125 C 11.53125 10.578125 9.152344 10.621094 9.480469 11.804688 C 9.632812 12.34375 10.675781 12.457031 11.710938 12.566406 C 13.238281 12.726562 14.746094 12.890625 14.746094 14.414062 C 14.746094 15.625 13.460938 16.285156 12.019531 17.023438 C 10.480469 17.8125 8.730469 18.714844 8.730469 20.320312 C 8.730469 23.222656 15.117188 23.257812 15.136719 23.257812 C 15.410156 23.261719 15.628906 23.484375 15.628906 23.757812 C 15.625 24.03125 15.402344 24.25 15.128906 24.246094 C 15.109375 24.246094 7.738281 24.210938 7.738281 20.320312 C 7.738281 18.109375 9.78125 17.0625 11.570312 16.144531 C 12.726562 15.550781 13.753906 15.023438 13.753906 14.414062 C 13.753906 13.78125 12.6875 13.667969 11.605469 13.550781 C 10.242188 13.40625 8.859375 13.257812 8.527344 12.070312 C 7.851562 9.648438 11.507812 9.585938 11.519531 9.585938 Z M 17.222656 7.011719 C 17.222656 6.4375 16.988281 5.914062 16.609375 5.539062 C 16.234375 5.160156 15.710938 4.925781 15.136719 4.925781 C 14.558594 4.925781 14.035156 5.160156 13.660156 5.539062 C 13.28125 5.914062 13.046875 6.4375 13.046875 7.011719 C 13.046875 8.128906 14.253906 9.625 15.136719 10.714844 C 16.015625 9.625 17.222656 8.128906 17.222656 7.011719 Z M 17.3125 4.835938 C 17.867188 5.394531 18.214844 6.164062 18.214844 7.011719 C 18.214844 8.484375 16.855469 10.160156 15.878906 11.367188 C 15.738281 11.539062 15.605469 11.707031 15.527344 11.800781 C 15.503906 11.835938 15.476562 11.863281 15.441406 11.890625 C 15.226562 12.058594 14.914062 12.023438 14.746094 11.808594 C 14.671875 11.714844 14.535156 11.546875 14.390625 11.367188 C 13.414062 10.160156 12.054688 8.484375 12.054688 7.011719 C 12.054688 6.164062 12.398438 5.394531 12.957031 4.835938 C 13.511719 4.277344 14.285156 3.933594 15.132812 3.933594 C 15.984375 3.933594 16.753906 4.277344 17.3125 4.835938 Z M 21.273438 19.171875 C 21.273438 18.445312 20.980469 17.785156 20.503906 17.308594 C 20.027344 16.832031 19.367188 16.539062 18.636719 16.539062 C 17.910156 16.539062 17.253906 16.832031 16.777344 17.308594 C 16.296875 17.785156 16.003906 18.445312 16.003906 19.171875 C 16.003906 20.570312 17.503906 22.425781 18.585938 23.757812 L 18.636719 23.824219 L 18.691406 23.757812 C 19.773438 22.425781 21.273438 20.570312 21.273438 19.171875 Z M 21.203125 16.605469 C 21.859375 17.261719 22.265625 18.167969 22.265625 19.171875 C 22.265625 20.917969 20.636719 22.933594 19.460938 24.382812 C 19.292969 24.589844 19.132812 24.789062 19.03125 24.914062 C 19.007812 24.945312 18.980469 24.976562 18.945312 25.003906 C 18.730469 25.171875 18.417969 25.132812 18.25 24.921875 C 18.152344 24.792969 17.988281 24.59375 17.816406 24.382812 C 16.644531 22.933594 15.011719 20.917969 15.011719 19.171875 C 15.011719 18.167969 15.417969 17.261719 16.074219 16.605469 C 16.730469 15.949219 17.636719 15.542969 18.636719 15.542969 C 19.640625 15.542969 20.546875 15.949219 21.203125 16.605469 Z M 21.203125 16.605469 " fill-opacity="1" fill-rule="nonzero"/></g></svg>